<?xml version="1.0" encoding="utf-8"?>
<!-- Generator: Adobe Illustrator 18.1.1, SVG Export Plug-In . SVG Version: 6.00 Build 0)  -->
<svg version="1.1" id="Layer_1" xmlns="http://www.w3.org/2000/svg" xmlns:xlink="http://www.w3.org/1999/xlink" x="0px" y="0px"
	 viewBox="0 0 730 290" enable-background="new 0 0 730 290" xml:space="preserve">
<g>
	<path fill-rule="evenodd" clip-rule="evenodd" fill="#FFFFFF" d="M710,0h-10h-10h-10h-10h-10h-10h-10h-10h-10h-10h-10h-10h-10h-10
		h-10h-10h-10h-10h-10h-10h-10h-10h-10h-10h-10h-10h-10h-10h-10h-10h-10h-10h-10h-10h-10h-10h-10h-10h-10h-10h-10h-10h-10h-10h-10
		h-10h-10h-10h-10h-10h-10h-10h-10h-10h-10h-10h-10h-10h-10h-10h-10H90H80H70H60H50H40H30H20H0v20v10v10v10v10v10v10v10v10v10v10v10
		v10v10v10v10v10v10v10v10v10v10v20h20h10h10h10h10h10h10h10h10h10h10h10h10h10h10h10h10h10h10v10v10v20h20h10h10h10h10h10h10h10h10
		h10h10h10h10h10h20v-20v-10v-10h10h10h10h10h10h10h10h10h10h10h10h10h10h10h10h10h10h10h10h10h10h10h10h10h10h10h10h10h10h10h10h10
		h10h10h20v-20v-10v-10v-10v-10v-10v-10v-10v-10v-10v-10v-10v-10v-10V90V80V70V60V50V40V30V20V0H710z M200,60v10v10v10v10v10v10v10
		v10v10v10v10v10v10v10h-10h-10h-10v-10v-10v-10v-10v-10v-10v-10v-10v-10v-10V80h-20h-10h-20v20v10v10v10v10v10v10v10v10v10v10h-10
		h-10H90H80H70H60H50v-10v-10v-10v-10v-10v-10v-10v-10v-10v-10V90V80V70V60V50h10h10h10h10h10h10h10h10h10h10h10h10h10h10h10V60z
		 M400,60v10v10v10v10v10v10v10v10v10v10v10v10v10v10h-10h-10h-10h-10h-10h-10h-20v20v10v10h-10h-10h-10h-10h-10h-10h-10v-10v-10
		v-10v-10v-10v-10v-10v-10v-10v-10v-10v-10v-10v-10V90V80V70V60V50h10h10h10h10h10h10h10h10h10h10h10h10h10h10h10V60z M680,60v10v10
		v10v10v10v10v10v10v10v10v10v10v10v10h-10h-10h-10v-10v-10v-10v-10v-10v-10v-10v-10v-10v-10V80h-20h-10h-20v20v10v10v10v10v10v10
		v10v10v10v10h-10h-10h-10v-10v-10v-10v-10v-10v-10v-10v-10v-10v-10V80h-20h-10h-20v20v10v10v10v10v10v10v10v10v10v10h-10h-10h-10
		h-10h-10h-10h-10v-10v-10v-10v-10v-10v-10v-10v-10v-10v-10V90V80V70V60V50h10h10h10h10h10h10h10h10h10h10h10h10h10h10h10h10h10h10
		h10h10h10h10h10V60z"/>
	<polygon fill-rule="evenodd" clip-rule="evenodd" fill="#FFFFFF" points="340,80 320,80 320,100 320,110 320,120 320,130 320,140 
		320,150 320,170 340,170 350,170 370,170 370,150 370,140 370,130 370,120 370,110 370,100 370,80 350,80 	"/>
</g>
</svg>
